<svg class="searchbar_main_logo" xmlns="http://www.w3.org/2000/svg" viewBox="0 0 539.99 83.96">
<defs>
<style>.mainlogo-1{fill:#fff;}.mainlogo-2{fill:#fff;}
</style>
</defs>
<path class="mainlogo-1 mainlogo-magnifying-glass" d="M519.07,23.92A25.93,25.93,0,0,0,486.79,10V18.7c.44-.24.84-.53,1.3-.74a18,18,0,1,1-1.3,32.2v8.53a25.8,25.8,0,0,0,15,.75l8.46,19L518.12,75l-8.45-19A25.89,25.89,0,0,0,519.07,23.92Z"/>

<path class="mainlogo-2" d="M44.55,17.41a15,15,0,0,0-8.13,2,6.77,6.77,0,0,0-3.18,6.12,7.1,7.1,0,0,0,3.18,6.25Q39.6,34,49.94,36.47t15.59,7Q70.78,48,70.78,56.83a17.65,17.65,0,0,1-6.64,14.29q-6.64,5.49-17.42,5.49a40.92,40.92,0,0,1-28-10.88l7.12-8.57Q36,66,47,66c3.65,0,6.56-.79,8.71-2.36a7.38,7.38,0,0,0,3.22-6.26,7,7,0,0,0-3-6.06q-3-2.16-10.44-4a90.83,90.83,0,0,1-11.26-3.27,25.17,25.17,0,0,1-6.84-3.9q-6-4.52-6-13.86T28.19,12Q35,6.93,45,6.92A40.36,40.36,0,0,1,57.79,9a33.42,33.42,0,0,1,11,6L62.7,23.57a23.16,23.16,0,0,0-8.09-4.43A31.26,31.26,0,0,0,44.55,17.41Z"/>
<path class="mainlogo-2" d="M127.84,55H87.7a11.69,11.69,0,0,0,5.1,9,17.89,17.89,0,0,0,10.78,3.42q9.63,0,14.63-6.07L124.37,68q-8.28,8.56-21.56,8.57a25.6,25.6,0,0,1-18.33-7.18q-7.56-7.16-7.56-19.25T84.62,31a25.87,25.87,0,0,1,18.14-7.12,26.25,26.25,0,0,1,17.76,6.31q7.32,6.3,7.32,17.37ZM87.7,46.48h29.36q0-6.45-4-9.91a14.76,14.76,0,0,0-10-3.47,17,17,0,0,0-10.63,3.61A11.64,11.64,0,0,0,87.7,46.48Z"/>
<path class="mainlogo-2" d="M178.32,75.84H168.5V69q-6.34,7.6-17,7.61a19.53,19.53,0,0,1-13.23-4.53A15.13,15.13,0,0,1,133,60q0-7.55,5.59-11.31t15.11-3.75h13.95V43q0-10.2-11.35-10.2-7.12,0-14.83,5.2l-4.81-6.74a33.14,33.14,0,0,1,21.18-7.41q9,0,14.77,4.57t5.73,14.39ZM167.54,56.78V52.45H155.41q-11.64,0-11.65,7.31a6.53,6.53,0,0,0,2.89,5.73q2.9,2,8,2a14.57,14.57,0,0,0,9-2.89A9.24,9.24,0,0,0,167.54,56.78Z"/>
<path class="mainlogo-2" d="M216.85,34.74q-8,0-12,5.19t-4,14v22H190V24.63h10.78v10.3A22.29,22.29,0,0,1,207.86,27a17,17,0,0,1,9.48-3.18l.09,10.88Z"/>
<path class="mainlogo-2" d="M246.64,76.61a25.87,25.87,0,0,1-18.38-7.27q-7.69-7.28-7.7-19t8-19.11a28,28,0,0,1,19.58-7.36,26.57,26.57,0,0,1,19.54,8l-6.35,7.8q-6.65-5.77-13.38-5.78a16.84,16.84,0,0,0-11.69,4.48,14.82,14.82,0,0,0-5,11.55,16.77,16.77,0,0,0,17,16.89q7.17,0,13.52-6.55l6.35,6.93Q258.87,76.6,246.64,76.61Z"/>
<path class="mainlogo-2" d="M286.25,48.12V75.84H275.47V4.52h10.78V34a17,17,0,0,1,7-7.41,19.73,19.73,0,0,1,10-2.7q8.67,0,14,5.29t5.34,15.31V75.84H311.85V47.73q0-14.15-11.74-14.15a14.11,14.11,0,0,0-9.72,3.71Q286.25,41,286.25,48.12Z"/>
<path class="mainlogo-1" d="M365.31,75.84H335.86V8.56H362a37.87,37.87,0,0,1,11.8,1.63,16.31,16.31,0,0,1,7.36,4.43,17.22,17.22,0,0,1,4.62,11.74q0,7.91-5,11.75a21,21,0,0,1-2.5,1.68c-.45.23-1.25.59-2.41,1.11a17.61,17.61,0,0,1,10,5.63,15.66,15.66,0,0,1,3.7,10.63,18.07,18.07,0,0,1-4.81,12.42Q379.06,75.84,365.31,75.84Zm-18.1-39.37h14.44Q374,36.47,374,28.1c0-3.21-1-5.52-3-6.93s-5.07-2.12-9.24-2.12H347.21Zm0,28.87H365c4.17,0,7.36-.65,9.58-2s3.32-3.8,3.32-7.46q0-9-14.34-8.95H347.21Z"/>
<path class="mainlogo-1" d="M409.82,60.53l-6.73,15.31H391L420.6,8.56h12.13l29.65,67.28H450.25l-6.74-15.31ZM438.89,50,426.67,22.32,414.44,50Z"/>
<path class="mainlogo-1" d="M468.84,8.56H480.2V75.84H468.84Z"/>
</svg>